/* XPM */
static char *_0933b06a906414ca2879b16a82f5536WdkafzKQaM5ZyUFP[] = {
/* columns rows colors chars-per-pixel */
"60 60 6 1 ",
"  c #60402C",
". c #7C583F",
"X c #636B78",
"o c #976E4F",
"O c #B18562",
"+ c #797C81",
/* pixels */
"oooo   ....ooooOOOOOOOoooooooo....ooo....OOOOOOOO...    oooo",
"oooo   ....ooooOOOOOOOoooooooo....ooo....OOOOOOOO...    oooo",
"oooo   ....ooooOOOOOOOoooooooo....ooo....OOOOOOOO...    oooo",
"oooo   ....ooooOOOOOOOoooooooo....ooo....OOOOOOOO...    oooo",
"OOOOoooOOOOooooOOOOooo....XXXX.......    oooooooo.......OOOO",
"OOOOoooOOOOooooOOOOooo....XXXX.......    oooooooo.......OOOO",
"OOOOoooOOOOooooOOOOooo....XXXX.......    oooooooo.......OOOO",
"oooo...oooo....oooo...    ....ooooooo....    ....ooo....OOOO",
"oooo...oooo....oooo...    ....ooooooo....    ....ooo++++....",
"oooo...oooo....oooo...    ....ooooooo....    ....ooo++++....",
"oooo...oooo....oooo...    ....ooooooo....    ....ooo++++....",
"ooooOOOOOOO....OOOOooo    oooooooo...oooooooo.......oooooooo",
"ooooOOOOOOO....OOOOooo    oooooooo...oooooooo.......oooooooo",
"ooooOOOOOOO....OOOOooo    oooooooo...oooooooo.......oooooooo",
"ooooOOOOOOO....OOOOooo    oooooooo...oooooooo.......oooooooo",
"    ooooooo........ooooooo    ....OOOOOOOoooo....   ....oooo",
"    ooooooo........ooooooo    ....OOOOOOOoooo....   ....oooo",
"    ooooooo........ooooooo    ....OOOOOOOoooo....   ....oooo",
"    ooooooo........ooooooo    ....OOOOOOOoooo....   ....oooo",
"ooooXXX....ooooooooOOOOOOOoooo....ooooooo........ooooooooooo",
"ooooXXX....ooooooooOOOOOOOoooo....ooooooo........ooooooooooo",
"ooooXXX....ooooooooOOOOOOOoooo....ooooooo........ooooooooooo",
"OOOOooo    ........ooo    ooooooooooooooo........ooooooooooo",
"OOOOooo    ........ooo    ooooooooooo....ooooXXXX...OOOOOOOO",
"OOOOooo    ........ooo    ooooooooooo....ooooXXXX...OOOOOOOO",
"OOOOooo    ........ooo    ooooooooooo....ooooXXXX...OOOOOOOO",
"ooooooooooooooooooo.......oooo    ...........oooooooOOOOoooo",
"ooooooooooooooooooo.......oooo    ...........oooooooOOOOoooo",
"ooooooooooooooooooo.......oooo    ...........oooooooOOOOoooo",
"ooooooooooooooooooo.......oooo    ...........oooooooOOOOoooo",
"....ooo........oooo...oooooooo....oooOOOOoooo....   oooooooo",
"....ooo........oooo...oooooooo....oooOOOOoooo....   oooooooo",
"....ooo........oooo...oooooooo....oooOOOOoooo....   oooooooo",
"....ooo........oooo...oooooooo....oooOOOOoooo....   oooooooo",
"OOOOOOOoooooooo....ooooooo....ooooOOOooooooooOOOO...........",
"OOOOOOOoooooooo....ooooooo....ooooOOOooooooooOOOO...........",
"OOOOOOOoooooooo....ooooooo....ooooOOOooooooooOOOO...........",
"oooooooooooXXXXooooOOOOOOOoooo.......ooooooooOOOOoooOOOO....",
"oooooooooooXXXXooooOOOOOOOoooo.......ooooooooOOOOoooOOOO....",
"oooooooooooXXXXooooOOOOOOOoooo.......ooooooooOOOOoooOOOO....",
"oooooooooooXXXXooooOOOOOOOoooo.......ooooooooOOOOoooOOOO....",
"    ...oooo........ooooooo....ooooooo........oooo.......oooo",
"    ...oooo........ooooooo....ooooooo........oooo.......oooo",
"    ...oooo........ooooooo....ooooooo........oooo.......oooo",
"    ...oooo........ooooooo....ooooooo........oooo.......oooo",
"....   ....oooooooo....   ........       ....ooooooo    oooo",
"....   ....oooooooo....   ........       ....ooooooo    oooo",
"....   ....oooooooo....   ........       ....ooooooo    oooo",
"....   ....oooooooo....   ........       ....ooooooo    oooo",
"oooo+++....oooo....ooooooooooo    oooooooXXXX.......ooooOOOO",
"oooo+++....oooo....ooooooooooo    oooooooXXXX.......ooooOOOO",
"oooo+++....oooo....ooooooooooo    oooooooXXXX.......ooooOOOO",
"........ooo....    ....oooXXXXoooo...oooooooooooo.......oooo",
"........ooo....    ....oooXXXXoooo...oooooooooooo.......oooo",
"........ooo....    ....oooXXXXoooo...oooooooooooo.......oooo",
"........ooo....    ....oooXXXXoooo...oooooooooooo.......oooo",
"oooo....ooo....ooooOOOO...oooooooo   ....        ooo....oooo",
"oooo....ooo....ooooOOOO...oooooooo   ....        ooo....oooo",
"oooo....ooo....ooooOOOO...oooooooo   ....        ooo....oooo",
"oooo....ooo....ooooOOOO...oooooooo   ....        ooo....oooo"
};
