/* XPM */
static char *_dc0fa0da4fe4908cf8fb5eb260abd23PuiCMh8AL6Su409G[] = {
/* columns rows colors chars-per-pixel */
"60 60 7 1 ",
"  c #767676",
". c #7C7C7C",
"X c #8B8B8B",
"o c gray55",
"O c gray58",
"+ c #979797",
"@ c #9F9F9F",
/* pixels */
"OOOOXXXOOOOOOOO@@@@@@@OOOOoooooXXX@@@@@@@@@@@OOOOoooXXXXXXXX",
"OOOOXXXOOOOOOOO@@@@@@@OOOOooooXXXX@@@@@@@@@@@OOOOoooXXXXXXXX",
"OOOOXXXOOOOOOOO@@@@@@@OOOOooXXXXXX@@@@@@@@@@@OOOOoXoXXXXXXXX",
"OOOOXXXOOOOOOOO@@@@@@@OOOOooXXXXXX@@@@@@@@@@@OOOOXXXXXXXXXXX",
"XXXX..............XXXXXXooXXXXXXXXXXXOOOOXXXoXXXX...    XXXX",
"XXXX..................XXoXXXXXXXXXXXXOOOOXXXoXXXX...    XXXX",
"XXXX..................XXXXXXXXXXoXooXOOOOXXXXXXXX...    XXXX",
"OOOOXXXXXXoXXXXXXXXXXX..X.......XXoooXXXX........OOO    XXXX",
"OOOOXXXXXXXXXXXXXXXoXX......XX....XXXXXXX.XX.....OOO@@@@@@@@",
"OOOOXXXXXXXXXXXXXXXoXX......XX....XXXXXXX.XX.....OOO@@@@@@@@",
"OOOOXoooXXXXXXXXXXooXX............XXoooXX.XX....XOOO@@@@@@@@",
"@@@@OOOoXXX@@@@@@@@@@@XXXX@@@@@@@@@@@ooXXXoooXXXooooXXXXXXXX",
"@@@@OOOoXXX@@@@@@@@@@@XXXX@@@@@@@@@@@XXXXXXXXXXXooXXXXXXXXXX",
"@@@@OOOXXXX@@@@@@@@@@@XXXX@@@@@@@@@@@XXXXXXXXXXXooXXXXXXXXXX",
"@@@@OOOXXXX@@@@@@@@@@@XXXX@@@@@@@@@@@XXXXXXXXXXXoXXXXXXXXXXX",
"XXXXXXXXXXXXXXXOOOOXXXXXXX...........XXXX@@@@@@@@@@@OOOOXXXX",
"XXXXXXXXXXXXoooOOOOXXXXXXX...........XooX@@@@@@@@@@@OOOOXXXX",
"XXXXXXXXXXXXoooOOOOXXXXXXX...........XooX@@@@@@@@@@@OOOOXXXX",
"XXXXXXXoXoXoXooOOOOoXXXoXX...........XXoX@@@@@@@@@@@OOOOXXXX",
"OOOOXXXOOOOOOOOOOOOOOO@@@@@@@@XXoooXX@@@@@@@@OOOOXXX........",
"OOOOXXXOOOOOOOOOOOOOOO@@@@@@@@XXXXXXX@@@@@@@@OOOOXXX........",
"OOOOXXXOOOOOOOOOOOOOOO@@@@@@@@XXXXXXX@@@@@@@@OOOOXXX........",
"XXXX..XXXX.....XooooXXXooo........XXX@@@@@@@@OOOOXXX........",
"XXXX...XXX.....XXXooXXoooo........XXXXXXX...............XXXX",
"XXXX....XX....XXXXXXXXXXoo........XXXXXXX.XX......XXX...XXXX",
"XXXX....XX....XoXXXXXXXXXo........XXXXXXXXXX......XXX...XXXX",
"@@@@@@@OOOO....    ...XXXXXXoo@@@@@@@OOOOXooXOOOOOOO@@@@@@@@",
"@@@@@@@OOOO....    ...XXXXXXoo@@@@@@@OOOOXoooOOOOOOO@@@@@@@@",
"@@@@@@@OOOO....    ...XXXXXXoo@@@@@@@OOOOXXXXOOOOOOO@@@@@@@@",
"@@@@@@@OOOO....    ...XXXXXXoo@@@@@@@OOOOXXXXOOOOOOO@@@@@@@@",
"XXXXOOOoXXXXXXXXXXXXXXOOOOXXXXXXXXOOOOOOOXXXX.XX.X..XXXXXXXX",
"XXXXOOOXXXXXXXXXXXXXXXOOOOXXXXXXXXOOOOOOOXXXX.XXXX..XXXXXXXX",
"XXXXOOOXXXXXXoooXXXXXXOOOOXXXXXXXXOOOOOOOXXXX.......XXXXXXXX",
"XXXXOOOXXXXXXoooXXXXXXOOOOXXXXXXXXOOOOOOOXXXX.......XXooXXXX",
"OOOOOOOOOOO@@@@@@@@OOO@@@@@@@@@@@@oooOOOO@@@@@@@@...    XXXX",
"OOOOOOOOOOO@@@@@@@@OOO@@@@@@@@@@@@oooOOOO@@@@@@@@...    XXXX",
"OOOOOOOOOOO@@@@@@@@OOO@@@@@@@@@@@@oooOOOO@@@@@@@@...    XXXX",
"XXXXXXXXXXXOOOOXXXXXXXXOOO@@@@XXXXXXXXXXXXXXooXXXXoXOOOO@@@@",
"XXXXXXXXXXXOOOOXXXXXXXXOOO@@@@XXXXXXXXXXXXXXXXXXXXooOOOO@@@@",
"XXXXXXXXXXXOOOOXXXXXXXXOOO@@@@XXXXXXXXXXXXXXXXXXXXooOOOO@@@@",
"oXoXXXXXXXXOOOOXXXXXXXXOOO@@@@XXXXXXXXXXXXXXXXXXXXXXOOOO@@@@",
"@@@@OOO@@@@XXXXXXXXOOOOOOO@@@@@@@@OOO....        XXXXXXXXXXX",
"@@@@OOO@@@@XXXXXoooOOOOOOO@@@@@@@@OOO....        XooXXXXXXXX",
"@@@@OOO@@@@XXXXXoooOOOOOOO@@@@@@@@OOO....        XooXXXXXXXX",
"@@@@OOO@@@@oXXXXXXXOOOOOOO@@@@@@@@OOO....        oooooooXXXX",
"XXXXXoX...X........@@@@XXXXXXXXXXX..X.XX.XXXXXXXXOOOOOOOOOOO",
"XXXXXXX............@@@@XXXXXXX...........XXXXXXXoOOOO+OOOOOO",
"XXXXXXX...XXX......@@@@XXXXXXX...........XXXXXXXXOOOOOOOOOOO",
"XXXXXXX.......XXXX.@@@@XooXXXX...........XXoooXXXOOOOOOOOOOO",
"       ....OOOO@@@@@@@@@@@@@@@XXoXooX@@@@OOOOoXXXXXXXXXXXXXX",
"       ....OOOO@@@@@@@@@@@@@@@XXooooo@@@@OOOOoXXXXXXooXXXXXX",
"       ....OOOO@@@@@@@@@@@@@@@XXooooo@@@@OOOOXXXXXXXooXXXXXX",
"XXXXXXXXXXXXXXX...................XXooXXXXXXX.....XXX...XXXX",
"XXXXXXXXXXXXXXX.........XX.....X..XXXXXXXXXXX.....XX....XXXX",
"XXXXXXXXXXXXXXX...XXXX..XX....XX..XXXXXXXXooXX....XX....XXXX",
"XXXXXXXXXXoXXXX...XXX...X.....X...XXXXXXXooooX....X.....XXXX",
"@@@@OOOO@@@oXXXXXXooXXX...OOOO@@@@@@@....    .......@@@@@@@@",
"@@@@OOOO@@@oXXXXXXooXXX...OOOO@@@@@@@....    .......@@@@@@@@",
"@@@@OOOO@@@oXXXXXXXXXXX.XXOOOO@@@@@@@....    .....XX@@@@@@@@",
"@@@@OOOO@@@oXXXXXXXXXXX.XXOOOO@@@@@@@....    ......X@@@@@@@@"
};
