/* XPM */
static char *f262d90724a146f4e5255449da7a0588wY5NmagPrgUE6w7W[] = {
/* columns rows colors chars-per-pixel */
"60 60 6 1 ",
"  c None",
". c #72683E",
"X c #DFB500",
"o c #E8C831",
"O c #F8D634",
"+ c #FFF83A",
/* pixels */
"                                                            ",
"                                                            ",
"                                                            ",
"                                                            ",
"                                                            ",
"                                                            ",
"                                                            ",
"                                                            ",
"                                                            ",
"                                                            ",
"                                                            ",
"                                                            ",
"                                                            ",
"                                                            ",
"                                                            ",
"                                                            ",
"                        ..........                          ",
"                       .+++..+++++.                         ",
"                       .+++..+++++.                         ",
"                     ..OOO.ooooooo+..                       ",
"                     ..OOO.ooooooo+..                       ",
"                    .+++..ooooooooo++.                      ",
"                    .OOO..ooooooooo++.                      ",
"                    .OOO..ooooooooo++.                      ",
"                    .+++..ooooooooo++.                      ",
"                  ..OOO.ooooooooooooo+..                    ",
"                  ..OOO.ooooooooooooo+..                    ",
"                  ..+++.ooooooooooooo+..                    ",
"                  ..+++.oooooooooooooo..                    ",
"                  ..+++.oooooooooooooo..                    ",
"                  ..OOO.oooooooooooooo..                    ",
"                  ..OOO.oooooooooooooo..                    ",
"                  ..+++.oooooooooooooo..                    ",
"                  ..OOO.oooooooooooooo..                    ",
"                    .XXX..ooooooooooo.                      ",
"                    .OOO..ooooooooooo.                      ",
"                    .OOO..ooooooooooo.                      ",
"                    .XXX..oooooooooXX.                      ",
"                    .XXX..oooooooooXX.                      ",
"                     ..OOO.XXoooooo..                       ",
"                       .XXX..XXXXX.                         ",
"                       .XXX..XXXXX.                         ",
"                        ..........                          ",
"                                                            ",
"                                                            ",
"                                                            ",
"                                                            ",
"                                                            ",
"                                                            ",
"                                                            ",
"                                                            ",
"                                                            ",
"                                                            ",
"                                                            ",
"                                                            ",
"                                                            ",
"                                                            ",
"                                                            ",
"                                                            ",
"                                                            "
};
